<svg xmlns="http://www.w3.org/2000/svg" width="960" height="720" viewBox="0 0 960 720" role="img" aria-label="Preview del nuevo template de email">
  <defs>
    <linearGradient id="hero" x1="0" x2="1" y1="0" y2="1">
      <stop offset="0" stop-color="#39d5bf" stop-opacity="0.26"/>
      <stop offset="0.52" stop-color="#ff8f70" stop-opacity="0.18"/>
      <stop offset="1" stop-color="#8f9cff" stop-opacity="0.2"/>
    </linearGradient>
    <filter id="shadow" x="-20%" y="-20%" width="140%" height="140%">
      <feDropShadow dx="0" dy="28" stdDeviation="28" flood-color="#000000" flood-opacity="0.35"/>
    </filter>
  </defs>
  <rect width="960" height="720" fill="#070908"/>
  <path d="M0 0h960v720H0z" fill="#070908"/>
  <path d="M0 0h960v720H0z" fill="none" stroke="#f3f7f4" stroke-opacity="0.05"/>
  <g opacity="0.2">
    <path d="M0 114h960M0 228h960M0 342h960M0 456h960M0 570h960" stroke="#f3f7f4"/>
    <path d="M120 0v720M240 0v720M360 0v720M480 0v720M600 0v720M720 0v720M840 0v720" stroke="#f3f7f4"/>
  </g>
  <rect x="160" y="64" width="640" height="592" rx="24" fill="#131816" stroke="#f3f7f4" stroke-opacity="0.14" filter="url(#shadow)"/>
  <rect x="160" y="64" width="640" height="154" rx="24" fill="url(#hero)"/>
  <path d="M160 194h640v24H160z" fill="url(#hero)"/>
  <path d="M160 218h640" stroke="#f3f7f4" stroke-opacity="0.14"/>
  <text x="192" y="118" fill="#39d5bf" font-family="Inter, Arial, sans-serif" font-size="13" font-weight="800" letter-spacing="2.4">NUEVA OPORTUNIDAD</text>
  <text x="192" y="166" fill="#f3f7f4" font-family="Inter, Arial, sans-serif" font-size="36" font-weight="800">Nueva solicitud</text>
  <text x="192" y="204" fill="#f3f7f4" font-family="Inter, Arial, sans-serif" font-size="36" font-weight="800">de cotizacion</text>
  <g transform="translate(192 258)">
    <path d="M0 0h576" stroke="#f3f7f4" stroke-opacity="0.14"/>
    <text x="0" y="38" fill="#a8b5af" font-family="Inter, Arial, sans-serif" font-size="16">Nombre</text>
    <text x="576" y="38" fill="#f3f7f4" font-family="Inter, Arial, sans-serif" font-size="16" font-weight="800" text-anchor="end">Gio Vazquez</text>
    <path d="M0 62h576" stroke="#f3f7f4" stroke-opacity="0.14"/>
    <text x="0" y="100" fill="#a8b5af" font-family="Inter, Arial, sans-serif" font-size="16">Email</text>
    <text x="576" y="100" fill="#39d5bf" font-family="Inter, Arial, sans-serif" font-size="16" font-weight="800" text-anchor="end">cliente@email.com</text>
    <path d="M0 124h576" stroke="#f3f7f4" stroke-opacity="0.14"/>
    <text x="0" y="162" fill="#a8b5af" font-family="Inter, Arial, sans-serif" font-size="16">Presupuesto</text>
    <text x="576" y="162" fill="#f3f7f4" font-family="Inter, Arial, sans-serif" font-size="16" font-weight="800" text-anchor="end">$5,000 - $10,000</text>
    <path d="M0 186h576" stroke="#f3f7f4" stroke-opacity="0.14"/>
  </g>
  <rect x="192" y="478" width="576" height="104" rx="16" fill="#171d1b" stroke="#39d5bf" stroke-opacity="0.28"/>
  <rect x="192" y="478" width="4" height="104" fill="#39d5bf"/>
  <text x="216" y="512" fill="#f3f7f4" font-family="Inter, Arial, sans-serif" font-size="15" font-weight="800">Mensaje</text>
  <text x="216" y="548" fill="#f3f7f4" font-family="Inter, Arial, sans-serif" font-size="16">Me interesa modernizar mi plataforma y mejorar</text>
  <text x="216" y="574" fill="#f3f7f4" font-family="Inter, Arial, sans-serif" font-size="16">la experiencia de contacto.</text>
  <path d="M192 612h576" stroke="#f3f7f4" stroke-opacity="0.14"/>
  <text x="480" y="640" fill="#a8b5af" font-family="Inter, Arial, sans-serif" font-size="13" text-anchor="middle">Enviado automaticamente desde codebygio.pro</text>
</svg>
